<?xml version="1.0" encoding="utf-8"?>
<svg version="1.0" width="41.408px" height="40px" viewBox="0 0 18 8" preserveAspectRatio="xMidYMid meet" xmlns="http://www.w3.org/2000/svg">
  <title>DarkMode-Icon</title>
  <path d="M 16.829 2.829 L 16.829 1.171 L 15.171 1.171 L 14 0 L 12.829 1.171 L 11.171 1.171 L 11.171 2.829 L 10 4 L 11.171 5.171 L 11.171 6.829 L 12.829 6.829 L 14 8 L 15.171 6.829 L 16.829 6.829 L 16.829 5.171 L 18 4 L 16.829 2.829 Z M 16.122 4.877 L 16.122 6.122 L 14.877 6.122 L 14 6.999 L 13.123 6.122 L 11.878 6.122 L 11.878 4.877 L 11.001 4 L 11.878 3.123 L 11.878 1.878 L 13.123 1.878 L 14 1.001 L 14.877 1.878 L 16.122 1.878 L 16.122 3.123 L 16.999 4 L 16.122 4.877 Z M 14 2.232 C 13.024 2.232 12.232 3.024 12.232 4 C 12.232 4.976 13.024 5.768 14 5.768 C 14.976 5.768 15.768 4.976 15.768 4 C 15.768 3.024 14.976 2.232 14 2.232 Z" style="fill: rgb(238, 238, 238);"/>
  <path d="M 6.829 2.829 L 6.829 1.171 L 5.17 1.171 L 4 0 L 2.829 1.171 L 1.17 1.171 L 1.17 2.829 L 0 4 L 1.17 5.171 L 1.17 6.829 L 2.829 6.829 L 4 8 L 5.17 6.829 L 6.829 6.829 L 6.829 5.171 L 8 4 L 6.829 2.829 Z M 4 6.122 C 3.685 6.122 3.384 6.051 3.116 5.928 C 3.844 5.592 4.353 4.856 4.353 4 C 4.353 3.144 3.844 2.409 3.116 2.073 C 3.384 1.949 3.685 1.878 4 1.878 C 5.17 1.878 6.122 2.829 6.122 4 C 6.122 5.171 5.17 6.122 4 6.122 Z"/>
</svg>
